<svg xmlns="http://www.w3.org/2000/svg" viewBox="0 0 32 32">
  <!-- Background -->
  <rect width="32" height="32" fill="#1a1a1a"/>
  
  <!-- Neural network nodes -->
  <circle cx="8" cy="8" r="2" fill="#ff6b35"/>
  <circle cx="16" cy="8" r="2" fill="#ff6b35"/>
  <circle cx="24" cy="8" r="2" fill="#ff6b35"/>
  
  <circle cx="8" cy="16" r="2" fill="#f7931e"/>
  <circle cx="16" cy="16" r="2" fill="#f7931e"/>
  <circle cx="24" cy="16" r="2" fill="#f7931e"/>
  
  <circle cx="8" cy="24" r="2" fill="#ffd23f"/>
  <circle cx="16" cy="24" r="2" fill="#ffd23f"/>
  <circle cx="24" cy="24" r="2" fill="#ffd23f"/>
  
  <!-- Neural network connections -->
  <line x1="8" y1="8" x2="8" y2="16" stroke="#ff6b35" stroke-width="1" opacity="0.7"/>
  <line x1="16" y1="8" x2="16" y2="16" stroke="#ff6b35" stroke-width="1" opacity="0.7"/>
  <line x1="24" y1="8" x2="24" y2="16" stroke="#ff6b35" stroke-width="1" opacity="0.7"/>
  
  <line x1="8" y1="16" x2="16" y2="16" stroke="#f7931e" stroke-width="1" opacity="0.7"/>
  <line x1="16" y1="16" x2="24" y2="16" stroke="#f7931e" stroke-width="1" opacity="0.7"/>
  
  <line x1="8" y1="16" x2="8" y2="24" stroke="#f7931e" stroke-width="1" opacity="0.7"/>
  <line x1="16" y1="16" x2="16" y2="24" stroke="#f7931e" stroke-width="1" opacity="0.7"/>
  <line x1="24" y1="16" x2="24" y2="24" stroke="#f7931e" stroke-width="1" opacity="0.7"/>
  
  <!-- Cross connections -->
  <line x1="8" y1="8" x2="16" y2="16" stroke="#ff6b35" stroke-width="0.5" opacity="0.5"/>
  <line x1="16" y1="8" x2="24" y2="16" stroke="#ff6b35" stroke-width="0.5" opacity="0.5"/>
  <line x1="8" y1="16" x2="16" y2="24" stroke="#f7931e" stroke-width="0.5" opacity="0.5"/>
  <line x1="16" y1="16" x2="24" y2="24" stroke="#f7931e" stroke-width="0.5" opacity="0.5"/>
</svg> 